<?xml version="1.0" encoding="UTF-8" standalone="no" ?>
<!DOCTYPE svg PUBLIC "-//W3C//DTD SVG 1.1//EN" "http://www.w3.org/Graphics/SVG/1.1/DTD/svg11.dtd">
<svg xmlns="http://www.w3.org/2000/svg" xmlns:xlink="http://www.w3.org/1999/xlink" version="1.1" width="100" height="100" viewBox="0 0 100 100" xml:space="preserve">
<desc>Created with Fabric.js 3.6.6</desc>
<defs>
</defs>
<g transform="matrix(2.94 0 0 2.94 51.97 52.03)"  >
<path style="stroke: none; stroke-width: 1; stroke-dasharray: none; stroke-linecap: butt; stroke-dashoffset: 0; stroke-linejoin: miter; stroke-miterlimit: 4; fill: rgb(39,40,44); fill-rule: evenodd; opacity: 1;"  transform=" translate(-8, -7)" d="M 16 1.65713 C 15.4114 1.93821 14.7787 2.12837 14.1147 2.21377 C 14.7923 1.77623 15.313 1.08372 15.5579 0.258267 C 14.9237 0.6633 14.2211 0.957523 13.4734 1.11604 C 12.8747 0.429062 12.0216 0 11.0774 0 C 9.26464 0 7.79488 1.58227 7.79488 3.53414 C 7.79488 3.81108 7.82384 4.08093 7.87984 4.33971 C 5.15168 4.19226 2.73296 2.7851 1.11392 0.646704 C 0.83136 1.16877 0.66944 1.77589 0.66944 2.42363 C 0.66944 3.64979 1.24896 4.73161 2.12976 5.36552 C 1.59168 5.34702 1.08544 5.18816 0.64304 4.92349 C 0.64272 4.93801 0.64272 4.95288 0.64272 4.96775 C 0.64272 6.68019 1.77424 8.10861 3.27584 8.43343 C 3.00048 8.51416 2.7104 8.55755 2.41104 8.55755 C 2.19952 8.55755 1.99392 8.53525 1.79344 8.49394 C 2.2112 9.89798 3.42336 10.92 4.85984 10.9485 C 3.73648 11.8964 2.32096 12.4615 0.78304 12.4615 C 0.51808 12.4615 0.2568 12.4447 0 12.412 C 1.45264 13.4148 3.17824 14 5.03184 14 C 11.0698 14 14.3715 8.61443 14.3715 3.94401 C 14.3715 3.79068 14.3683 3.63821 14.3621 3.4866 C 15.0035 2.98839 15.56 2.36589 16 1.65713 Z" stroke-linecap="round" />
</g>
</svg>